<?xml version="1.0" encoding="iso-8859-1"?>
<!-- Generator: Adobe Illustrator 19.0.0, SVG Export Plug-In . SVG Version: 6.00 Build 0)  -->
<svg version="1.1" id="Layer_1" xmlns="http://www.w3.org/2000/svg" xmlns:xlink="http://www.w3.org/1999/xlink" x="0px" y="0px"
	 viewBox="0 0 512 512" style="enable-background:new 0 0 512 512;" xml:space="preserve">
<rect x="61.952" y="2" style="fill:#FFFFFF;" width="388.08" height="508"/>
<path style="fill:#CCCCCC;" d="M448.04,4v504H63.96V4H448.04 M452.04,0H59.96v512h392.08L452.04,0L452.04,0z"/>
<rect x="59.96" width="392.08" height="33.112"/>
<rect x="93.264" y="66.688" style="fill:#E21B1B;" width="326.08" height="202.776"/>
<rect x="144.48" y="325.904" style="fill:#222020;" width="223.024" height="8"/>
<g>
	<rect x="100.792" y="370" style="fill:#999999;" width="310.416" height="8"/>
	<rect x="100.792" y="393.2" style="fill:#999999;" width="310.416" height="8"/>
	<rect x="100.792" y="416.32" style="fill:#999999;" width="310.416" height="8"/>
	<rect x="100.792" y="439.52" style="fill:#999999;" width="310.416" height="8"/>
	<rect x="100.792" y="462.68" style="fill:#999999;" width="310.416" height="8"/>
</g>
<polygon style="fill:#FFFFFF;" points="145.096,236.424 209.424,161.792 273.744,236.424 "/>
<polygon points="193.352,236.424 280.432,135.392 367.512,236.424 "/>
<circle style="fill:#FFFFFF;" cx="234.08" cy="114" r="21.4"/>
<g>
</g>
<g>
</g>
<g>
</g>
<g>
</g>
<g>
</g>
<g>
</g>
<g>
</g>
<g>
</g>
<g>
</g>
<g>
</g>
<g>
</g>
<g>
</g>
<g>
</g>
<g>
</g>
<g>
</g>
</svg>
