<?xml version="1.0" ?><svg width="512px" height="512px" viewBox="0 0 512 512" id="_x30_1" style="enable-background:new 0 0 512 512;" version="1.1" xml:space="preserve" xmlns="http://www.w3.org/2000/svg" xmlns:xlink="http://www.w3.org/1999/xlink"><path d="M436,40h-81.716c-5.304,0-10.391-2.107-14.142-5.858L311.858,5.858C308.107,2.107,303.02,0,297.716,0h-83.432  c-5.304,0-10.391,2.107-14.142,5.858l-28.284,28.284C168.107,37.893,163.02,40,157.716,40H76c-22.091,0-40,17.909-40,40  s17.909,40,40,40h0v332c0,33.137,26.863,60,60,60h240c33.137,0,60-26.863,60-60V120c22.091,0,40-17.909,40-40S458.091,40,436,40z   M216,402c0,16.569-13.431,30-30,30s-30-13.431-30-30V190c0-16.569,13.431-30,30-30s30,13.431,30,30V402z M356,402  c0,16.569-13.431,30-30,30s-30-13.431-30-30V190c0-16.569,13.431-30,30-30s30,13.431,30,30V402z"/></svg>